<svg id="Layer_1" data-name="Layer 1" xmlns="http://www.w3.org/2000/svg" viewBox="0 0 2400 2400"><defs><style>.cls-1{fill:#e5e5e5;}.cls-2{fill:#1d2f33;}.cls-3{fill:#366e99;}.cls-4{fill:#d11c1c;}</style></defs><title>Koncar</title><path class="cls-1" d="M1600,500V1505.69a387.42,387.42,0,0,1-31.38,153.54,393.14,393.14,0,0,1-85.78,125.46A401.06,401.06,0,0,1,1200,1900.25h-2.79A391.79,391.79,0,0,1,1044,1868.1a408.13,408.13,0,0,1-212.68-213.17A386.35,386.35,0,0,1,800,1502.3V500Z"/><path class="cls-2" d="M1600,500V1505.69a387.42,387.42,0,0,1-31.38,153.54,393.14,393.14,0,0,1-85.78,125.46A401.06,401.06,0,0,1,1200,1900.25h-2.79A391.79,391.79,0,0,1,1044,1868.1a408.13,408.13,0,0,1-212.68-213.17A386.35,386.35,0,0,1,800,1502.3V500h800m75-100H725a24.86,24.86,0,0,0-24.86,24.86V1496.53c0,273.06,223.37,501.26,496.42,503.11H1200c276.09,0,499.89-223.8,499.89-499.89V424.86A24.86,24.86,0,0,0,1675,400Z"/><path class="cls-3" d="M1506.22,1504.56a306.53,306.53,0,0,1-187,282.13q-11.76,5-23.82,8.92a308.13,308.13,0,0,1-189.75.3q-12.54-4-24.74-9.22c-155.82-66-228.65-245.77-162.68-401.59a306.38,306.38,0,0,1,162.68-162.68q7.85-3.32,15.82-6.19a12.4,12.4,0,0,1,14.35,4.61,494.24,494.24,0,0,1,44.2,77.37,12.43,12.43,0,0,1-6.12,16.48,13.24,13.24,0,0,1-1.82.67,196.43,196.43,0,0,0-143.64,189.2c0,95.19,67.74,174.55,157.64,192.54a198.66,198.66,0,0,0,78.49-.21c89.38-18.4,156.6-97.51,156.6-192.33,0-89.85-60.34-165.58-142.7-188.94a12.41,12.41,0,0,1-8.53-15.35,12.08,12.08,0,0,1,.65-1.77,495.72,495.72,0,0,1,44.1-77.32,12.4,12.4,0,0,1,14.37-4.61q7.52,2.73,14.9,5.85a305.78,305.78,0,0,1,187,282.14Z"/><path class="cls-3" d="M1696.64,1504v5.14c0,1.95,0,3.88-.1,5.82v.16c0,1.08,0,2.18-.09,3.26s-.06,2.2-.11,3.3v1l-.11,2.68c-.06,1.43-.12,2.85-.2,4.26,0,.63-.06,1.25-.1,1.87v.92c0,.66-.09,1.32-.13,2-.15,2.32-.3,4.62-.47,6.93s-.35,4.35-.55,6.53v.37c-.2,2.25-.43,4.5-.65,6.74a13.29,13.29,0,0,1-.16,1.52v.45c-.1.91-.19,1.8-.3,2.7-.24,2.09-.48,4.18-.75,6.26q-.35,2.88-.75,5.73c-.08.58-.15,1.15-.24,1.71-.17,1.29-.36,2.58-.56,3.86-.36,2.45-.74,4.88-1.14,7.31-.15.88-.29,1.77-.44,2.64-.08.49-.17,1-.26,1.47a4.12,4.12,0,0,1-.15.84c-.16.94-.32,1.87-.49,2.81-.24,1.36-.5,2.73-.76,4.09-.21,1.13-.43,2.26-.65,3.38-.84,4.31-1.74,8.58-2.71,12.85-.3,1.35-.61,2.7-.92,4-.61,2.61-1.24,5.21-1.89,7.82-.37,1.46-.74,2.94-1.13,4.41-.67,2.57-1.35,5.14-2.07,7.72-.4,1.44-.81,2.88-1.22,4.32-.36,1.27-.74,2.53-1.11,3.78s-.69,2.35-1.06,3.52c-.41,1.37-.83,2.73-1.26,4.09q-3.06,9.77-6.52,19.34c-.41,1.15-.83,2.31-1.25,3.47-1,2.77-2.08,5.53-3.15,8.29-.94,2.41-1.9,4.81-2.87,7.22-.51,1.25-1,2.51-1.55,3.75s-1,2.49-1.58,3.73q-1.56,3.74-3.23,7.42c-.52,1.17-1,2.32-1.58,3.49s-1.18,2.59-1.78,3.87-1.14,2.43-1.72,3.65c-.87,1.83-1.74,3.64-2.64,5.46s-1.79,3.62-2.7,5.41-1.71,3.38-2.59,5c-.13.24-.24.46-.36.7-.87,1.65-1.76,3.31-2.64,5-.63,1.18-1.27,2.36-1.91,3.54s-1.3,2.35-2,3.52-1.3,2.34-2,3.5-1.33,2.33-2,3.48-1.34,2.32-2,3.47-1.37,2.3-2,3.45l-2.09,3.44c-1.39,2.27-2.81,4.55-4.25,6.8-.71,1.13-1.43,2.25-2.16,3.38-1.44,2.23-2.91,4.47-4.4,6.68s-3,4.43-4.51,6.63l-2.3,3.28c-.76,1.08-1.53,2.16-2.3,3.23s-1.65,2.3-2.49,3.45c-1.53,2.1-3.08,4.17-4.65,6.25-.83,1.12-1.69,2.23-2.53,3.34-1.59,2.06-3.18,4.11-4.8,6.14l-4,5c-.33.41-.66.83-1,1.24-1.16,1.41-2.33,2.83-3.52,4.24q-2.71,3.26-5.52,6.47c-1.29,1.51-2.59,3-3.91,4.48l-.13.13-.54.61q-2.34,2.61-4.69,5.19c-1.58,1.72-3.17,3.44-4.78,5.13-1.41,1.49-2.83,3-4.27,4.45-2,2-3.93,4-5.93,6-1.41,1.43-2.84,2.83-4.27,4.22l-.3.3c-1.57,1.52-3.13,3-4.72,4.54l-4.64,4.34c-1.54,1.42-3.11,2.85-4.67,4.27l-3.43,3.06-2,1.71c-1.34,1.18-2.69,2.37-4.06,3.53l-.07.07c-2,1.71-4,3.4-6,5.09-1.4,1.16-2.8,2.31-4.22,3.46-2,1.61-4,3.22-6,4.8q-1.92,1.52-3.86,3c-1.57,1.21-3.13,2.4-4.71,3.59h-.08c-2.11,1.6-4.22,3.16-6.36,4.72s-4.41,3.18-6.64,4.73c-.91.63-1.81,1.28-2.73,1.9-2.34,1.63-4.7,3.22-7.06,4.8q-2.09,1.39-4.19,2.76c-.9.58-1.79,1.17-2.69,1.74l-2.63,1.69c-2.45,1.55-4.92,3.09-7.4,4.6q-3.42,2.09-6.88,4.11c-1.16.69-2.31,1.36-3.47,2a497.16,497.16,0,0,1-495.21.33c-2.32-1.33-4.63-2.69-6.93-4.06s-4.3-2.6-6.44-3.91-4.12-2.57-6.17-3.88q-3.46-2.21-6.87-4.47c-1.77-1.16-3.52-2.34-5.26-3.52l-1.3-.9c-1.83-1.26-3.66-2.52-5.47-3.8s-3.57-2.53-5.33-3.81c-.45-.32-.89-.64-1.32-1-1.73-1.25-3.43-2.52-5.14-3.79-.19-.13-.38-.28-.57-.43-1.92-1.44-3.84-2.9-5.74-4.38q-9.52-7.37-18.67-15.2-1.23-1-2.43-2.1-2.53-2.18-5-4.41c-.8-.72-1.61-1.44-2.42-2.18-1.24-1.12-2.5-2.23-3.73-3.39-.45-.4-.88-.8-1.32-1.21-1.92-1.77-3.84-3.57-5.74-5.39-3-2.87-5.94-5.77-8.85-8.7-.88-.87-1.74-1.75-2.6-2.62s-1.86-1.9-2.79-2.87c-.7-.72-1.39-1.45-2.08-2.18q-3.36-3.51-6.62-7.08c-.75-.81-1.48-1.61-2.22-2.43l-.46-.51c-1.18-1.3-2.34-2.61-3.51-3.94l-4-4.53c-2.61-3-5.18-6.09-7.72-9.19-1.14-1.39-2.27-2.78-3.39-4.19q-2.08-2.56-4.11-5.18-2.46-3.15-4.88-6.34c-1.44-1.91-2.87-3.83-4.27-5.74s-2.62-3.61-3.92-5.42a4,4,0,0,1-.23-.34c-1.32-1.84-2.61-3.69-3.91-5.55s-2.64-3.86-4-5.79q-5.61-8.38-10.89-17l-1.81-3a499,499,0,0,1-28.23-54c-.76-1.71-1.51-3.42-2.26-5.15-.14-.31-.27-.62-.4-.93-.73-1.69-1.45-3.38-2.16-5.09q-1.17-2.8-2.31-5.64c-.76-1.88-1.51-3.76-2.25-5.67-1-2.53-1.94-5.07-2.89-7.6l-2-5.43c-.06-.22-.14-.41-.21-.61-.65-1.83-1.3-3.66-1.92-5.5-1.82-5.34-3.56-10.74-5.22-16.16-.42-1.38-.82-2.74-1.23-4.12q-2.19-7.5-4.17-15.07c-.66-2.52-1.31-5.06-1.92-7.59-.67-2.81-1.33-5.63-2-8.47q-.72-3.18-1.4-6.41c-.41-1.91-.8-3.83-1.19-5.75-.53-2.73-1-5.45-1.54-8.18s-1-5.47-1.42-8.22q-1-6.18-1.87-12.41-.57-4.17-1.07-8.34c-.31-2.53-.6-5.08-.86-7.61-.11-1.07-.23-2.13-.32-3.2-.15-1.52-.3-3.07-.44-4.61-.07-.87-.15-1.75-.22-2.63-.4-4.7-.72-9.42-1-14.17-.12-2.16-.22-4.33-.32-6.49-.11-2.61-.2-5.22-.27-7.85,0-1.3-.06-2.59-.09-3.9s0-2.59,0-3.89v-5.1c.2-180.9,97.13-339.15,241.86-425.8a12.5,12.5,0,0,1,12.85,0,497.42,497.42,0,0,1,92.2,71.07,12.43,12.43,0,0,1-3.44,20.21c-127,58.12-215.21,186.29-215.21,335.09,0,155.13,95.89,287.85,231.65,342.12a369.78,369.78,0,0,0,274.18-.33c135.3-54.49,230.81-187,230.81-341.79,0-148.5-87.88-276.46-214.46-334.75a12.41,12.41,0,0,1-3.42-20.18,497.41,497.41,0,0,1,92-71.08,12.51,12.51,0,0,1,12.88,0C1599.77,1165.28,1696.44,1323.34,1696.64,1504Z"/><path class="cls-3" d="M1334.27,1504.56A135.39,135.39,0,0,1,1333,1523a133.25,133.25,0,0,1-38.06,76.46l-2,1.93A134.4,134.4,0,0,1,1182.19,1637a2.67,2.67,0,0,1-.16.6,134.25,134.25,0,0,1-11.83-263.9,12.42,12.42,0,0,1,14.78,9,497.15,497.15,0,0,1,15.07,121.85v.58h1.14v-.58a497.5,497.5,0,0,1,15-121.6,12.38,12.38,0,0,1,14.78-9,134.32,134.32,0,0,1,103.29,130.65Z"/><path class="cls-4" d="M1304.7,658.31h158a6.21,6.21,0,0,1,5.08,9.79l-82.55,117.11a6.22,6.22,0,0,0,5.08,9.8h48.25a6.21,6.21,0,0,1,4.91,10L1255.94,1045.6c-4.34,5.56-13.12.74-10.76-5.9l58-163.27a6.21,6.21,0,0,0-3.78-7.94,6.15,6.15,0,0,0-2.08-.36h-51.46a6.21,6.21,0,0,1-6.21-6.21,6.06,6.06,0,0,1,.26-1.79l58.83-197.42A6.21,6.21,0,0,1,1304.7,658.31Z"/><path class="cls-4" d="M1095.3,658.31h-158a6.21,6.21,0,0,0-5.08,9.79l82.55,117.11a6.22,6.22,0,0,1-5.08,9.8H961.44a6.21,6.21,0,0,0-4.91,10l187.53,240.59c4.34,5.56,13.12.74,10.76-5.9l-58-163.27a6.21,6.21,0,0,1,3.78-7.94,6.15,6.15,0,0,1,2.08-.36h51.46a6.21,6.21,0,0,0,6.21-6.21,6.06,6.06,0,0,0-.26-1.79l-58.83-197.42A6.21,6.21,0,0,0,1095.3,658.31Z"/></svg>