<?xml version="1.0" encoding="utf-8"?>
<!-- Generator: Adobe Illustrator 23.0.0, SVG Export Plug-In . SVG Version: 6.00 Build 0)  -->
<svg version="1.1" id="Layer_1" xmlns="http://www.w3.org/2000/svg" xmlns:xlink="http://www.w3.org/1999/xlink" x="0px" y="0px"
	 viewBox="0 0 24 24" style="enable-background:new 0 0 24 24;" xml:space="preserve">
<style type="text/css">
	.st0{fill:none;}
	.st1{fill:#FFFFFF;}
</style>
<path class="st0" d="M0,0h24v24H0V0z"/>
<path class="st1" d="M18.9,6c-0.2-0.6-0.8-1-1.4-1h-11C5.8,5,5.3,5.4,5.1,6l-2,5.7C3,11.9,3,12.1,3,12.3v7.2C3,20.3,3.7,21,4.5,21
	S6,20.3,6,19.5V19h12v0.5c0,0.8,0.7,1.5,1.5,1.5c0.8,0,1.5-0.7,1.5-1.5v-7.2c0-0.2,0-0.4-0.1-0.7L18.9,6z M6.5,16
	C5.7,16,5,15.3,5,14.5S5.7,13,6.5,13S8,13.7,8,14.5S7.3,16,6.5,16z M17.5,16c-0.8,0-1.5-0.7-1.5-1.5s0.7-1.5,1.5-1.5
	s1.5,0.7,1.5,1.5S18.3,16,17.5,16z M5,11l1.3-3.8c0.1-0.4,0.5-0.7,0.9-0.7h9.6c0.4,0,0.8,0.3,1,0.7L19,11H5z"/>
</svg>
