<?xml version="1.0" encoding="utf-8"?>
<!-- Generator: Adobe Illustrator 23.0.0, SVG Export Plug-In . SVG Version: 6.00 Build 0)  -->
<svg version="1.1" id="Layer_1" xmlns="http://www.w3.org/2000/svg" xmlns:xlink="http://www.w3.org/1999/xlink" x="0px" y="0px"
	 viewBox="0 0 24 24" style="enable-background:new 0 0 24 24;" xml:space="preserve">
<style type="text/css">
	.st0{fill:#FFFFFF;}
</style>
<path class="st0" d="M14,9h-4c-0.6,0-1,0.4-1,1v4c0,0.6,0.4,1,1,1h4c0.6,0,1-0.4,1-1v-4C15,9.4,14.6,9,14,9z M13,13h-2v-2h2V13z
	 M21,10c0-0.6-0.5-1-1-1h-1V7c0-1.1-0.9-2-2-2h-2V4c0-0.5-0.4-1-1-1s-1,0.5-1,1v1h-2V4c0-0.5-0.4-1-1-1S9,3.5,9,4v1H7
	C5.9,5,5,5.9,5,7v2H4c-0.5,0-1,0.4-1,1s0.5,1,1,1h1v2H4c-0.5,0-1,0.4-1,1s0.5,1,1,1h1v2c0,1.1,0.9,2,2,2h2v1c0,0.5,0.4,1,1,1
	s1-0.5,1-1v-1h2v1c0,0.5,0.4,1,1,1s1-0.5,1-1v-1h2c1.1,0,2-0.9,2-2v-2h1c0.5,0,1-0.4,1-1s-0.5-1-1-1h-1v-2h1C20.5,11,21,10.6,21,10z
	 M16,17H8c-0.6,0-1-0.5-1-1V8c0-0.6,0.4-1,1-1h8c0.5,0,1,0.4,1,1v8C17,16.5,16.5,17,16,17z"/>
</svg>
