<?xml version="1.0" encoding="utf-8"?>
<!-- Generator: Adobe Illustrator 23.0.0, SVG Export Plug-In . SVG Version: 6.00 Build 0)  -->
<svg version="1.1" id="Layer_1" xmlns="http://www.w3.org/2000/svg" xmlns:xlink="http://www.w3.org/1999/xlink" x="0px" y="0px"
	 viewBox="0 0 24 24" style="enable-background:new 0 0 24 24;" xml:space="preserve">
<style type="text/css">
	.st0{fill:none;}
	.st1{fill:#FFFFFF;}
</style>
<path class="st0" d="M0,0h24v24H0V0z"/>
<path class="st1" d="M1,6C0.4,6,0,6.4,0,7v4h0l0,9c0,1.1,0.9,2,2,2h17c0.5,0,1-0.5,1-1s-0.5-1-1-1H3c-0.5,0-1-0.5-1-1V7
	C2,6.4,1.5,6,1,6z M22,4h-8l-1.4-1.4C12.2,2.2,11.7,2,11.2,2H6C4.9,2,4,2.9,4,4l0,12c0,1.1,0.9,2,2,2h16c1.1,0,2-0.9,2-2V6
	C24,4.9,23.1,4,22,4z M7.6,14.2l3.5-4.7c0.2-0.3,0.6-0.3,0.8,0l3.1,4l2.1-2.5c0.2-0.3,0.6-0.2,0.8,0l2.5,3.2c0.3,0.3,0,0.8-0.4,0.8
	H8C7.6,15,7.3,14.5,7.6,14.2z"/>
</svg>
