<?xml version="1.0" encoding="utf-8"?>
<!-- Generator: Adobe Illustrator 23.0.0, SVG Export Plug-In . SVG Version: 6.00 Build 0)  -->
<svg version="1.1" id="Layer_1" xmlns="http://www.w3.org/2000/svg" xmlns:xlink="http://www.w3.org/1999/xlink" x="0px" y="0px"
	 viewBox="0 0 24 24" style="enable-background:new 0 0 24 24;" xml:space="preserve">
<style type="text/css">
	.st0{fill:none;}
	.st1{fill:#FFFFFF;}
</style>
<path class="st0" d="M0,0h24v24H0V0z"/>
<path class="st1" d="M16,7l0-3c0-0.5-0.4-1-1-1s-1,0.5-1,1v3h-4V4c0-0.5-0.4-1-1-1S8,3.5,8,4v3h0C6.9,7,6,7.9,6,9v4.7
	c0,0.5,0.2,1,0.6,1.4L9.5,18v2c0,0.5,0.4,1,1,1h3c0.6,0,1-0.5,1-1v-2l2.9-2.9c0.4-0.4,0.6-0.9,0.6-1.4V9C18,7.9,17.1,7,16,7z"/>
</svg>
