<?xml version="1.0" encoding="utf-8"?>
<!-- Generator: Adobe Illustrator 23.0.0, SVG Export Plug-In . SVG Version: 6.00 Build 0)  -->
<svg version="1.1" id="Layer_1" xmlns="http://www.w3.org/2000/svg" xmlns:xlink="http://www.w3.org/1999/xlink" x="0px" y="0px"
	 viewBox="0 0 24 24" style="enable-background:new 0 0 24 24;" xml:space="preserve">
<style type="text/css">
	.st0{fill:#FFFFFF;}
</style>
<path class="st0" d="M21,2H3C1.9,2,1,2.9,1,4v12c0,1.1,0.9,2,2,2h7v2H9c-0.6,0-1,0.5-1,1s0.4,1,1,1h6c0.6,0,1-0.5,1-1s-0.4-1-1-1h-1
	v-2h7c1.1,0,2-0.9,2-2V4C23,2.9,22.1,2,21,2z M20,16H4c-0.5,0-1-0.4-1-1V5c0-0.6,0.5-1,1-1h16c0.5,0,1,0.4,1,1v10
	C21,15.6,20.5,16,20,16z"/>
</svg>
