<?xml version="1.0" encoding="utf-8"?>
<!-- Generator: Adobe Illustrator 23.0.0, SVG Export Plug-In . SVG Version: 6.00 Build 0)  -->
<svg version="1.1" id="Layer_1" xmlns="http://www.w3.org/2000/svg" xmlns:xlink="http://www.w3.org/1999/xlink" x="0px" y="0px"
	 viewBox="0 0 24 24" style="enable-background:new 0 0 24 24;" xml:space="preserve">
<style type="text/css">
	.st0{fill:#FFFFFF;}
</style>
<path class="st0" d="M12,12c0-3,2.5-5.5,5.5-5.5c2.6,0,4.8,1.8,5.4,4.2c0.1,0.6-0.3,1.3-1,1.3H12z M12,12c0,3-2.5,5.5-5.5,5.5
	c-2.6,0-4.8-1.8-5.3-4.2C1,12.6,1.5,12,2.1,12H12z M12,12c-3,0-5.5-2.5-5.5-5.5c0-2.6,1.8-4.8,4.2-5.3C11.4,1,12,1.5,12,2.1V12z
	 M12,12c3,0,5.5,2.5,5.5,5.5c0,2.6-1.8,4.8-4.2,5.4c-0.6,0.1-1.3-0.3-1.3-1V12z"/>
</svg>
