<?xml version="1.0" encoding="utf-8"?>
<!-- Generator: Adobe Illustrator 23.0.0, SVG Export Plug-In . SVG Version: 6.00 Build 0)  -->
<svg version="1.1" id="Layer_1" xmlns="http://www.w3.org/2000/svg" xmlns:xlink="http://www.w3.org/1999/xlink" x="0px" y="0px"
	 viewBox="0 0 24 24" style="enable-background:new 0 0 24 24;" xml:space="preserve">
<style type="text/css">
	.st0{fill:#FFFFFF;}
</style>
<path class="st0" d="M4.7,9.4l-2,1.9c-0.4,0.4-0.4,1,0,1.4l2,1.9c0.5,0.5,1.3,0.5,1.8,0c0.5-0.5,0.5-1.3,0-1.8L5.5,12l0.9-0.9
	c0.5-0.5,0.5-1.3,0-1.8S5.1,8.9,4.7,9.4z M17.6,9.4c-0.5,0.5-0.5,1.3,0,1.8l0.9,0.9l-0.9,0.9c-0.5,0.5-0.5,1.3,0,1.8
	c0.5,0.5,1.3,0.5,1.8,0l2-1.9c0.4-0.4,0.4-1,0-1.4l-2-1.9C18.9,8.9,18.1,8.9,17.6,9.4z M12,18.5l-0.9-0.9c-0.5-0.5-1.3-0.5-1.8,0
	c-0.5,0.5-0.5,1.3,0,1.8l1.9,2c0.4,0.4,1,0.4,1.4,0l1.9-2c0.5-0.5,0.5-1.3,0-1.8c-0.5-0.5-1.3-0.5-1.8,0C12.9,17.6,12,18.5,12,18.5z
	 M9.4,6.4c0.5,0.5,1.3,0.5,1.8,0L12,5.5l0.9,0.9c0.5,0.5,1.3,0.5,1.8,0c0.5-0.5,0.5-1.3,0-1.8l-2-2c-0.4-0.4-1-0.4-1.4,0l-1.9,2
	C8.9,5.1,8.9,5.9,9.4,6.4z"/>
<circle class="st0" cx="12" cy="12" r="3"/>
</svg>
